<svg xmlns="http://www.w3.org/2000/svg" xmlns:xlink="http://www.w3.org/1999/xlink" viewBox="0 0 1200 1200"><defs><linearGradient id="a" x1="175.74" y1="175.74" x2="1024.26" y2="1024.26" gradientUnits="userSpaceOnUse"><stop offset="0" stop-color="#0dcaf0"/><stop offset="1" stop-color="#766df4"/></linearGradient></defs><rect x="1024.26" y="1024.26" width="175.74" height="175.74" style="fill:#fd7e14"/><path d="M600,0C268.63,0,0,268.63,0,600s268.63,600,600,600c165.69,0,315.69-67.16,424.26-175.74H848.53V848.53A350.39,350.39,0,0,1,600,951.47c-194.11,0-351.47-157.36-351.47-351.47S405.89,248.53,600,248.53,951.47,405.89,951.47,600A350.39,350.39,0,0,1,848.53,848.53h175.73v175.73C1132.84,915.69,1200,765.69,1200,600,1200,268.63,931.37,0,600,0Z" style="fill:url(#a)"/><rect x="672.79" y="672.79" width="175.74" height="175.74" style="fill:#fd7e14"/></svg>