<?xml version="1.0" standalone="no"?>
<!DOCTYPE svg PUBLIC "-//W3C//DTD SVG 20010904//EN"
 "http://www.w3.org/TR/2001/REC-SVG-20010904/DTD/svg10.dtd">
<svg version="1.0" xmlns="http://www.w3.org/2000/svg"
 width="700.000000pt" height="700.000000pt" viewBox="0 0 700.000000 700.000000"
 preserveAspectRatio="xMidYMid meet">
<metadata>
Created by potrace 1.14, written by Peter Selinger 2001-2017
</metadata>
<g transform="translate(0.000000,700.000000) scale(0.100000,-0.100000)"
fill="#000000" stroke="none">
<path d="M3278 6996 c-1 -2 -42 -6 -89 -10 -47 -4 -95 -8 -105 -10 -10 -2 -48
-7 -84 -12 -36 -4 -67 -8 -70 -9 -3 -1 -25 -5 -50 -9 -25 -4 -101 -21 -170
-38 -69 -16 -134 -31 -146 -34 -39 -7 -228 -72 -346 -117 -249 -97 -611 -296
-788 -434 -8 -6 -51 -40 -95 -74 -426 -331 -813 -825 -1020 -1299 -25 -58 -50
-114 -55 -125 -45 -93 -150 -427 -176 -560 -2 -11 -10 -54 -19 -95 -29 -147
-35 -193 -52 -370 -15 -163 -8 -592 12 -711 2 -13 6 -46 9 -74 9 -78 23 -156
51 -285 54 -251 162 -550 288 -800 61 -122 169 -312 187 -330 3 -3 31 -43 62
-90 170 -255 431 -534 708 -755 92 -74 370 -265 386 -265 4 0 15 -6 23 -14 9
-7 81 -47 161 -88 354 -181 736 -303 1109 -354 25 -3 57 -8 71 -10 163 -25
682 -25 842 1 13 2 46 7 73 10 74 11 87 13 120 19 17 4 46 9 65 12 51 8 213
48 300 74 253 74 522 187 734 309 49 28 91 51 93 51 10 0 270 182 358 251 152
120 321 279 445 418 36 41 70 79 76 85 65 68 263 353 352 508 47 80 182 351
182 364 0 3 8 24 19 47 53 118 147 417 177 562 17 81 54 301 59 350 4 33 9 71
11 85 9 47 11 525 3 605 -15 165 -21 220 -24 225 -2 3 -6 30 -10 60 -9 75 -69
337 -99 435 -189 622 -521 1151 -997 1590 -412 380 -944 668 -1487 805 -121
30 -244 56 -312 65 -19 3 -46 7 -60 10 -13 2 -52 7 -86 11 -33 3 -74 8 -90 10
-33 5 -540 14 -546 10z m432 -1457 c36 -5 81 -11 100 -13 268 -37 568 -152
815 -313 55 -36 102 -68 105 -72 3 -4 30 -26 60 -50 88 -68 211 -191 308 -305
31 -36 144 -202 173 -251 146 -257 230 -511 268 -820 11 -88 11 -341 1 -420
-5 -33 -11 -82 -15 -110 -3 -27 -11 -70 -16 -95 -6 -25 -12 -52 -14 -60 -40
-190 -137 -425 -251 -606 -80 -128 -151 -220 -247 -324 l-42 -44 -5 509 -5
510 -505 -1 c-278 -1 -507 -2 -510 -3 -3 0 -5 -230 -5 -511 l0 -510 1022 0
c811 0 1023 -3 1024 -12 1 -7 2 -235 3 -506 1 -430 -1 -495 -14 -501 -12 -6
-969 -8 -1002 -2 -5 0 -8 228 -8 506 0 310 -4 505 -9 505 -6 0 -16 -8 -23 -18
-44 -60 -277 -233 -428 -317 -155 -86 -410 -182 -555 -209 -16 -3 -43 -8 -60
-11 -95 -19 -247 -32 -370 -33 -367 -1 -707 89 -1023 270 -570 327 -949 905
-1021 1558 -20 184 -5 470 33 645 116 532 435 997 886 1290 90 59 246 143 335
180 106 44 320 106 415 120 24 4 47 8 50 10 3 2 41 6 85 10 44 4 82 9 84 11 7
7 298 1 361 -7z"/>
<path d="M5981 1015 c-4 -5 -7 -235 -7 -510 l1 -500 513 -3 512 -2 0 513 0
512 -506 0 c-333 0 -508 -3 -513 -10z"/>
</g>
</svg>
